#Comment line ignore any data following # character 
#Hierarchical Translation and Rotation (.htr) file 
[Header]	
#Header keywords are followed by a single value 
FileType HTR		#Single word string
DataType HTRS		#Translation followed by rotation and scale data
FileVersion 1		#integer
NumSegments 84		#integer
NumFrames 2		#integer
DataFrameRate 30		#integer, data frame rate in this file
EulerRotationOrder ZYX
CalibrationUnits mm
RotationUnits Degrees
GlobalAxisofGravity Y
BoneLengthAxis Y
ScaleFactor 1.00
[SegmentNames&Hierarchy]
#CHILD	PARENT
MASTER GLOBAL
root MASTER
chest root
L_mid_tent01 root
R_mid_tent01 root
spine01 root
Bip01_Neck chest
L_humerus chest
R_humerus chest
weapon_bone chest
Bip01_Head Bip01_Neck
eye_left_bone Bip01_Head
eye_right_bone Bip01_Head
L_forearm L_humerus
L_front_hand L_forearm
L_weapon_bone L_forearm
L_front_hand01_01 L_front_hand
L_front_hand02_01 L_front_hand
L_front_hand03_01 L_front_hand
L_front_hand01_02 L_front_hand01_01
L_front_hand02_02 L_front_hand02_01
L_front_hand03_02 L_front_hand03_01
R_forearm R_humerus
R_front_hand R_forearm
R_weapon_bone R_forearm
R_front_hand01_01 R_front_hand
R_front_hand02_01 R_front_hand
R_front_hand03_01 R_front_hand
R_front_hand01_02 R_front_hand01_01
R_front_hand02_02 R_front_hand02_01
R_front_hand03_02 R_front_hand03_01
null_rope01_connect L_mid_tent01
Rope1_Seg01 null_rope01_connect
Rope1_Seg02 Rope1_Seg01
Rope1_Seg03 Rope1_Seg02
Rope1_Seg04 Rope1_Seg03
Rope1_Seg05 Rope1_Seg04
Rope1_Seg06 Rope1_Seg05
Rope1_Seg07 Rope1_Seg06
Rope1_Seg09 Rope1_Seg07
L_mid_hand01 Rope1_Seg09
L_mid_hand02 Rope1_Seg09
L_mid_hand03 Rope1_Seg09
null_rope02_connect R_mid_tent01
Rope2_Seg01 null_rope02_connect
Rope2_Seg02 Rope2_Seg01
Rope2_Seg03 Rope2_Seg02
Rope2_Seg04 Rope2_Seg03
Rope2_Seg05 Rope2_Seg04
Rope2_Seg06 Rope2_Seg05
Rope2_Seg07 Rope2_Seg06
Rope2_Seg09 Rope2_Seg07
R_mid_hand01 Rope2_Seg09
R_mid_hand02 Rope2_Seg09
R_mid_hand03 Rope2_Seg09
spine02 spine01
spine03 spine02
pelvis spine03
null_rope03_connect pelvis
null_rope04_connect pelvis
Rope3_Seg01 null_rope03_connect
Rope3_Seg02 Rope3_Seg01
Rope3_Seg03 Rope3_Seg02
Rope3_Seg04 Rope3_Seg03
Rope3_Seg05 Rope3_Seg04
Rope3_Seg06 Rope3_Seg05
Rope3_Seg07 Rope3_Seg06
Rope3_Seg08 Rope3_Seg07
Rope3_Seg09 Rope3_Seg08
R_rear_hand01 Rope3_Seg09
R_rear_hand02 Rope3_Seg09
R_rear_hand03 Rope3_Seg09
Rope4_Seg01 null_rope04_connect
Rope4_Seg02 Rope4_Seg01
Rope4_Seg03 Rope4_Seg02
Rope4_Seg04 Rope4_Seg03
Rope4_Seg05 Rope4_Seg04
Rope4_Seg06 Rope4_Seg05
Rope4_Seg07 Rope4_Seg06
Rope4_Seg08 Rope4_Seg07
Rope4_Seg09 Rope4_Seg08
L_rear_hand01 Rope4_Seg09
L_rear_hand02 Rope4_Seg09
L_rear_hand03 Rope4_Seg09
[BasePosition]
#SegmentName Tx, Ty, Tz, Rx, Ry, Rz, BoneLength
MASTER 0.000000 0.000000 0.000000 -90.000000 0.000000 0.000000 10.000000 
root 0.000000 0.000000 0.000000 0.000000 0.000000 0.000000 10.000000 
chest 0.000000 0.000000 0.000000 0.000000 0.000000 0.000000 10.000000 
L_mid_tent01 0.000000 0.000000 0.000000 0.000000 0.000000 0.000000 10.000000 
R_mid_tent01 0.000000 0.000000 0.000000 0.000000 0.000000 0.000000 10.000000 
spine01 0.000000 0.000000 0.000000 0.000000 0.000000 0.000000 10.000000 
Bip01_Neck 0.000000 0.000000 0.000000 0.000000 0.000000 0.000000 10.000000 
L_humerus 0.000000 0.000000 0.000000 0.000000 0.000000 0.000000 10.000000 
R_humerus 0.000000 0.000000 0.000000 0.000000 0.000000 0.000000 10.000000 
weapon_bone 0.000000 0.000000 0.000000 0.000000 0.000000 0.000000 10.000000 
Bip01_Head 0.000000 0.000000 0.000000 0.000000 0.000000 0.000000 10.000000 
eye_left_bone 0.000000 0.000000 0.000000 0.000000 0.000000 0.000000 10.000000 
eye_right_bone 0.000000 0.000000 0.000000 0.000000 0.000000 0.000000 10.000000 
L_forearm 0.000000 0.000000 0.000000 0.000000 0.000000 0.000000 10.000000 
L_front_hand 0.000000 0.000000 0.000000 0.000000 0.000000 0.000000 10.000000 
L_weapon_bone 0.000000 0.000000 0.000000 0.000000 0.000000 0.000000 10.000000 
L_front_hand01_01 0.000000 0.000000 0.000000 0.000000 0.000000 0.000000 10.000000 
L_front_hand02_01 0.000000 0.000000 0.000000 0.000000 0.000000 0.000000 10.000000 
L_front_hand03_01 0.000000 0.000000 0.000000 0.000000 0.000000 0.000000 10.000000 
L_front_hand01_02 0.000000 0.000000 0.000000 0.000000 0.000000 0.000000 10.000000 
L_front_hand02_02 0.000000 0.000000 0.000000 0.000000 0.000000 0.000000 10.000000 
L_front_hand03_02 0.000000 0.000000 0.000000 0.000000 0.000000 0.000000 10.000000 
R_forearm 0.000000 0.000000 0.000000 0.000000 0.000000 0.000000 10.000000 
R_front_hand 0.000000 0.000000 0.000000 0.000000 0.000000 0.000000 10.000000 
R_weapon_bone 0.000000 0.000000 0.000000 0.000000 0.000000 0.000000 10.000000 
R_front_hand01_01 0.000000 0.000000 0.000000 0.000000 0.000000 0.000000 10.000000 
R_front_hand02_01 0.000000 0.000000 0.000000 0.000000 0.000000 0.000000 10.000000 
R_front_hand03_01 0.000000 0.000000 0.000000 0.000000 0.000000 0.000000 10.000000 
R_front_hand01_02 0.000000 0.000000 0.000000 0.000000 0.000000 0.000000 10.000000 
R_front_hand02_02 0.000000 0.000000 0.000000 0.000000 0.000000 0.000000 10.000000 
R_front_hand03_02 0.000000 0.000000 0.000000 0.000000 0.000000 0.000000 10.000000 
null_rope01_connect 0.000000 0.000000 0.000000 0.000000 0.000000 0.000000 10.000000 
Rope1_Seg01 0.000000 0.000000 0.000000 0.000000 0.000000 0.000000 10.000000 
Rope1_Seg02 0.000000 0.000000 0.000000 0.000000 0.000000 0.000000 10.000000 
Rope1_Seg03 0.000000 0.000000 0.000000 0.000000 0.000000 0.000000 10.000000 
Rope1_Seg04 0.000000 0.000000 0.000000 0.000000 0.000000 0.000000 10.000000 
Rope1_Seg05 0.000000 0.000000 0.000000 0.000000 0.000000 0.000000 10.000000 
Rope1_Seg06 0.000000 0.000000 0.000000 0.000000 0.000000 0.000000 10.000000 
Rope1_Seg07 0.000000 0.000000 0.000000 0.000000 0.000000 0.000000 10.000000 
Rope1_Seg09 0.000000 0.000000 0.000000 0.000000 0.000000 0.000000 10.000000 
L_mid_hand01 0.000000 0.000000 0.000000 0.000000 0.000000 0.000000 10.000000 
L_mid_hand02 0.000000 0.000000 0.000000 0.000000 0.000000 0.000000 10.000000 
L_mid_hand03 0.000000 0.000000 0.000000 0.000000 0.000000 0.000000 10.000000 
null_rope02_connect 0.000000 0.000000 0.000000 0.000000 0.000000 0.000000 10.000000 
Rope2_Seg01 0.000000 0.000000 0.000000 0.000000 0.000000 0.000000 10.000000 
Rope2_Seg02 0.000000 0.000000 0.000000 0.000000 0.000000 0.000000 10.000000 
Rope2_Seg03 0.000000 0.000000 0.000000 0.000000 0.000000 0.000000 10.000000 
Rope2_Seg04 0.000000 0.000000 0.000000 0.000000 0.000000 0.000000 10.000000 
Rope2_Seg05 0.000000 0.000000 0.000000 0.000000 0.000000 0.000000 10.000000 
Rope2_Seg06 0.000000 0.000000 0.000000 0.000000 0.000000 0.000000 10.000000 
Rope2_Seg07 0.000000 0.000000 0.000000 0.000000 0.000000 0.000000 10.000000 
Rope2_Seg09 0.000000 0.000000 0.000000 0.000000 0.000000 0.000000 10.000000 
R_mid_hand01 0.000000 0.000000 0.000000 0.000000 0.000000 0.000000 10.000000 
R_mid_hand02 0.000000 0.000000 0.000000 0.000000 0.000000 0.000000 10.000000 
R_mid_hand03 0.000000 0.000000 0.000000 0.000000 0.000000 0.000000 10.000000 
spine02 0.000000 0.000000 0.000000 0.000000 0.000000 0.000000 10.000000 
spine03 0.000000 0.000000 0.000000 0.000000 0.000000 0.000000 10.000000 
pelvis 0.000000 0.000000 0.000000 0.000000 0.000000 0.000000 10.000000 
null_rope03_connect 0.000000 0.000000 0.000000 0.000000 0.000000 0.000000 10.000000 
null_rope04_connect 0.000000 0.000000 0.000000 0.000000 0.000000 0.000000 10.000000 
Rope3_Seg01 0.000000 0.000000 0.000000 0.000000 0.000000 0.000000 10.000000 
Rope3_Seg02 0.000000 0.000000 0.000000 0.000000 0.000000 0.000000 10.000000 
Rope3_Seg03 0.000000 0.000000 0.000000 0.000000 0.000000 0.000000 10.000000 
Rope3_Seg04 0.000000 0.000000 0.000000 0.000000 0.000000 0.000000 10.000000 
Rope3_Seg05 0.000000 0.000000 0.000000 0.000000 0.000000 0.000000 10.000000 
Rope3_Seg06 0.000000 0.000000 0.000000 0.000000 0.000000 0.000000 10.000000 
Rope3_Seg07 0.000000 0.000000 0.000000 0.000000 0.000000 0.000000 10.000000 
Rope3_Seg08 0.000000 0.000000 0.000000 0.000000 0.000000 0.000000 10.000000 
Rope3_Seg09 0.000000 0.000000 0.000000 0.000000 0.000000 0.000000 10.000000 
R_rear_hand01 0.000000 0.000000 0.000000 0.000000 0.000000 0.000000 10.000000 
R_rear_hand02 0.000000 0.000000 0.000000 0.000000 0.000000 0.000000 10.000000 
R_rear_hand03 0.000000 0.000000 0.000000 0.000000 0.000000 0.000000 10.000000 
Rope4_Seg01 0.000000 0.000000 0.000000 0.000000 0.000000 0.000000 10.000000 
Rope4_Seg02 0.000000 0.000000 0.000000 0.000000 0.000000 0.000000 10.000000 
Rope4_Seg03 0.000000 0.000000 0.000000 0.000000 0.000000 0.000000 10.000000 
Rope4_Seg04 0.000000 0.000000 0.000000 0.000000 0.000000 0.000000 10.000000 
Rope4_Seg05 0.000000 0.000000 0.000000 0.000000 0.000000 0.000000 10.000000 
Rope4_Seg06 0.000000 0.000000 0.000000 0.000000 0.000000 0.000000 10.000000 
Rope4_Seg07 0.000000 0.000000 0.000000 0.000000 0.000000 0.000000 10.000000 
Rope4_Seg08 0.000000 0.000000 0.000000 0.000000 0.000000 0.000000 10.000000 
Rope4_Seg09 0.000000 0.000000 0.000000 0.000000 0.000000 0.000000 10.000000 
L_rear_hand01 0.000000 0.000000 0.000000 0.000000 0.000000 0.000000 10.000000 
L_rear_hand02 0.000000 0.000000 0.000000 0.000000 0.000000 0.000000 10.000000 
L_rear_hand03 0.000000 0.000000 0.000000 0.000000 0.000000 0.000000 10.000000 
#Beginning of Data. Separated by tabs
#Fr	Tx	Ty	Tz	Rx	Ry	Rz	SF
[MASTER]
95 -4711.392090 -1457.590454 23.973118 0.001660 0.001660 0.001660 4931.770508
96 -4735.626465 -1484.706055 22.257273 0.001660 0.001660 0.001660 4962.963867
[root]
95 -16.502380 -62.822109 1455.976440 -95.813728 -15.706414 -74.650452 1457.424561
96 -16.502380 -62.822109 1461.913574 -92.396957 -18.715923 -76.141792 1463.355835
[chest]
95 -84.512650 -34.090519 0.000000 -2.643897 0.624234 171.124786 91.129311
96 -84.512650 -34.090519 0.000000 -2.616414 0.624554 171.154755 91.129311
[L_mid_tent01]
95 27.299633 22.177504 -249.918213 -1.379269 36.511189 66.497536 252.381104
96 27.299635 22.177504 -249.918213 -1.379268 36.511192 66.497536 252.381104
[R_mid_tent01]
95 23.228794 24.509907 226.238495 173.895706 -30.891874 58.389244 228.744751
96 23.228794 24.509907 226.238495 173.895706 -30.891880 58.389252 228.744751
[spine01]
95 -0.361383 -0.195265 0.000000 0.001845 0.001451 13.654368 0.410763
96 -0.361383 -0.195265 0.000000 0.001845 0.001451 13.654368 0.410763
[Bip01_Neck]
95 165.484543 71.581718 0.000119 176.643677 -1.657967 43.431911 180.302734
96 165.484543 71.581718 0.000119 176.643677 -1.657967 43.431911 180.302734
[L_humerus]
95 -13.983130 -135.272980 -120.471481 161.873856 66.626541 -106.491699 181.680161
96 -13.983130 -135.272980 -120.471481 156.317902 70.209793 -112.009743 181.680161
[R_humerus]
95 -13.983309 -135.273102 125.287651 -171.004105 -30.671587 -98.058998 184.909012
96 -13.983309 -135.273102 125.287651 -171.006271 -34.201248 -97.584099 184.909012
[weapon_bone]
95 235.964890 -300.705902 0.000000 0.000000 -89.951546 -128.212341 382.234833
96 235.964890 -300.705902 0.000000 0.000000 -89.951546 -128.212341 382.234833
[Bip01_Head]
95 213.443497 185.716766 11.758255 -10.407583 -6.414418 -41.555569 283.173248
96 213.443542 185.716660 11.759676 -8.792429 -5.445443 -42.060112 283.173309
[eye_left_bone]
95 -24.626970 125.451866 -64.772606 0.000000 -90.000000 -99.840431 143.318359
96 -24.626970 125.451866 -64.772606 0.000000 -90.000000 -99.840431 143.318359
[eye_right_bone]
95 -24.626970 125.451866 64.327362 0.000000 -89.965736 80.156380 143.117676
96 -24.626970 125.451866 64.327362 0.000000 -89.965736 80.156380 143.117676
[L_forearm]
95 322.776093 0.000000 -0.000119 0.000119 -0.002344 -95.807457 322.776093
96 322.776093 0.000000 -0.000119 0.000119 -0.002344 -95.807457 322.776093
[L_front_hand]
95 241.149185 -0.042021 -3.300071 149.893951 -1.837326 -27.423067 241.171753
96 241.149185 -0.042021 -3.300071 149.893951 -1.837326 -27.423067 241.171753
[L_weapon_bone]
95 156.183838 0.000000 0.000000 0.000014 0.000007 0.000001 156.183838
96 156.183838 0.000000 0.000000 0.000014 0.000007 0.000001 156.183838
[L_front_hand01_01]
95 86.095154 20.947098 -0.655860 -0.366594 -0.477154 75.385574 88.609184
96 86.095154 20.947098 -0.655860 -0.366594 -0.477154 75.385574 88.609184
[L_front_hand02_01]
95 86.935165 -11.437475 24.513514 154.399796 -59.883835 -61.369587 91.046425
96 86.935165 -11.437475 24.513514 154.399796 -59.883835 -61.369587 91.046425
[L_front_hand03_01]
95 86.637497 -14.123976 -20.424902 -153.913849 58.118122 -62.702866 90.126129
96 86.637497 -14.123976 -20.424902 -153.913879 58.118130 -62.702892 90.126129
[L_front_hand01_02]
95 71.020905 -0.000179 0.000030 0.000334 -0.002323 -106.379684 71.020905
96 71.020905 -0.000179 0.000030 0.000334 -0.002323 -106.379684 71.020905
[L_front_hand02_02]
95 71.020927 -0.000119 0.000060 0.000334 -0.002323 -106.379684 71.020927
96 71.020927 -0.000119 0.000060 0.000334 -0.002323 -106.379684 71.020927
[L_front_hand03_02]
95 71.020905 -0.000060 0.000060 0.000334 -0.002323 -106.379684 71.020905
96 71.020905 -0.000060 0.000060 0.000334 -0.002323 -106.379684 71.020905
[R_forearm]
95 322.776428 -0.000060 0.000030 0.209504 0.012586 -94.339050 322.776428
96 322.776428 -0.000060 0.000030 0.209504 0.012586 -94.339050 322.776428
[R_front_hand]
95 238.847015 -0.006795 2.210259 -8.879457 -10.642941 -26.315098 238.857239
96 238.847015 -0.006795 2.210259 -8.879457 -10.642941 -26.315098 238.857239
[R_weapon_bone]
95 155.664093 0.002503 -0.000030 0.003487 0.001180 -90.988930 155.664078
96 155.664093 0.002503 -0.000030 0.003487 0.001180 -90.988930 155.664078
[R_front_hand01_01]
95 87.624611 14.231146 22.918642 -154.633499 -59.950619 61.746044 91.683487
96 87.624611 14.231146 22.918642 -154.633499 -59.950619 61.746044 91.683487
[R_front_hand02_01]
95 89.356956 14.367283 -19.491137 154.602661 58.302849 63.744389 92.579636
96 89.356956 14.367283 -19.491137 154.602661 58.302849 63.744389 92.579636
[R_front_hand03_01]
95 87.286232 -22.307278 -0.143439 0.162155 -0.423168 -75.767921 90.091743
96 87.286232 -22.307278 -0.143439 0.162155 -0.423168 -75.767906 90.091743
[R_front_hand01_02]
95 71.020905 0.000060 0.000119 0.002323 -0.000334 106.381714 71.020905
96 71.020905 0.000060 0.000119 0.002323 -0.000334 106.381714 71.020905
[R_front_hand02_02]
95 71.020844 -0.000030 -0.000119 0.002323 -0.000334 106.381714 71.020836
96 71.020844 -0.000030 -0.000119 0.002323 -0.000334 106.381714 71.020836
[R_front_hand03_02]
95 71.020905 0.000000 0.000030 0.002323 -0.000334 106.381714 71.020905
96 71.020905 0.000000 0.000030 0.002323 -0.000334 106.381714 71.020905
[null_rope01_connect]
95 328.732483 0.000000 -0.000238 -163.023529 -54.769661 -152.770599 328.732483
96 328.732483 0.000000 -0.000238 -158.287979 -58.312386 -155.943024 328.732483
[Rope1_Seg01]
95 0.000000 0.000000 0.000000 113.039864 12.331689 -154.939819 0.000000
96 0.000000 0.000000 0.000000 117.548920 16.024544 -153.070877 0.000000
[Rope1_Seg02]
95 139.999863 -0.000179 0.000000 14.395447 -29.374079 3.848606 139.999863
96 139.999863 -0.000179 0.000000 14.793040 -32.222294 5.887496 139.999863
[Rope1_Seg03]
95 139.999924 0.000060 -0.000060 9.340219 -23.825119 -4.569403 139.999924
96 139.999924 0.000060 -0.000060 8.082500 -25.448496 -2.299048 139.999924
[Rope1_Seg04]
95 139.999924 -0.000060 -0.000119 -1.482131 -6.434869 14.504112 139.999924
96 139.999924 -0.000060 -0.000119 -1.234259 -5.255684 14.983699 139.999924
[Rope1_Seg05]
95 139.999832 0.000119 -0.000060 5.806809 3.739627 32.774750 139.999832
96 139.999832 0.000119 -0.000060 6.656092 5.488663 30.547913 139.999832
[Rope1_Seg06]
95 139.999954 0.000119 -0.000060 6.744895 3.077576 15.783346 139.999954
96 139.999954 0.000119 -0.000060 6.643702 4.122318 15.034812 139.999954
[Rope1_Seg07]
95 139.999985 0.000060 0.000000 3.229996 1.381976 6.040388 139.999985
96 139.999985 0.000060 0.000000 3.066758 1.738415 5.810148 139.999985
[Rope1_Seg09]
95 121.602913 0.000119 -0.000089 -89.793175 -1.359789 0.847147 121.602913
96 121.602913 0.000119 -0.000089 -89.793175 -1.359789 0.847147 121.602913
[L_mid_hand01]
95 103.859421 1.038730 8.195221 130.544373 -67.584534 -38.866943 104.187431
96 103.859421 1.038730 8.195221 130.544373 -67.584534 -38.866943 104.187431
[L_mid_hand02]
95 105.572853 -4.139662 -10.864139 -168.923172 43.409309 -73.498886 106.211075
96 105.572853 -4.139662 -10.864139 -168.923172 43.409309 -73.498886 106.211075
[L_mid_hand03]
95 104.641464 17.579376 -3.913581 -6.012627 17.808174 74.893669 106.179977
96 104.641464 17.579376 -3.913581 -6.012627 17.808174 74.893669 106.179977
[null_rope02_connect]
95 328.732849 0.000179 -0.000119 -105.873627 48.037624 27.780527 328.732849
96 328.732849 0.000179 -0.000119 -108.050522 47.353844 22.006811 328.732849
[Rope2_Seg01]
95 0.000277 0.000287 0.000000 -122.595985 52.255146 -22.201834 0.000399
96 0.000280 0.000288 0.000000 -118.969902 45.165062 -23.769543 0.000401
[Rope2_Seg02]
95 139.999741 -0.000060 -0.000119 18.261003 -26.470509 -11.006005 139.999756
96 139.999741 -0.000060 -0.000119 21.546021 -28.248201 -11.134974 139.999756
[Rope2_Seg03]
95 140.000107 0.000030 0.000000 4.818940 -23.766262 -3.066565 140.000107
96 140.000107 0.000030 0.000000 5.093029 -24.759521 -1.917768 140.000107
[Rope2_Seg04]
95 139.999802 0.000000 -0.000060 0.277996 -13.392064 -0.021013 139.999802
96 139.999802 0.000000 -0.000060 0.176151 -13.112167 1.644094 139.999802
[Rope2_Seg05]
95 139.999985 -0.000060 0.000119 -0.485141 -9.137116 1.558568 139.999985
96 139.999985 -0.000060 0.000119 -0.282219 -7.932705 3.734939 139.999985
[Rope2_Seg06]
95 139.999893 -0.000030 -0.000119 -0.598344 -6.836360 1.251187 139.999893
96 139.999893 -0.000030 -0.000119 -0.159318 -5.572251 2.594234 139.999893
[Rope2_Seg07]
95 139.999893 0.000060 -0.000060 -0.609500 -4.556697 0.555466 139.999893
96 139.999893 0.000060 -0.000060 -0.187309 -3.760761 1.383425 139.999893
[Rope2_Seg09]
95 121.338966 0.000089 -0.000060 33.793236 -1.359788 -0.847141 121.338966
96 121.338966 0.000089 -0.000060 33.793236 -1.359788 -0.847141 121.338966
[R_mid_hand01]
95 104.680779 11.144459 -10.335981 -16.212063 45.237247 70.462852 105.778534
96 104.680779 11.144459 -10.335981 -16.212063 45.237247 70.462852 105.778534
[R_mid_hand02]
95 104.070427 2.443552 8.231699 49.067368 -67.749771 39.286453 104.424065
96 104.070427 2.443552 8.231699 49.067368 -67.749771 39.286453 104.424065
[R_mid_hand03]
95 106.028137 -11.221827 -5.996406 -177.101105 15.551026 -76.585571 106.788818
96 106.028137 -11.221827 -5.996406 -177.101105 15.551026 -76.585571 106.788818
[spine02]
95 129.756927 0.001550 0.000119 -1.023899 -3.926965 6.770993 129.756927
96 129.756927 0.001550 0.000119 -1.023899 -3.926965 6.770993 129.756927
[spine03]
95 78.613747 0.087414 -4.898705 1.040680 4.146419 4.212375 78.766273
96 78.613747 0.087416 -4.898703 1.040681 4.146420 4.212376 78.766273
[pelvis]
95 169.435242 0.051022 0.000000 0.019518 -0.190233 -10.721436 169.435257
96 169.435242 0.051022 0.000000 0.019518 -0.190233 -10.721436 169.435257
[null_rope03_connect]
95 -1.257226 -2.466202 137.391083 113.542747 -75.110085 -20.876936 137.418976
96 -1.257226 -2.466202 137.391083 101.226044 -76.750954 -6.033007 137.418976
[null_rope04_connect]
95 -1.259640 -2.480268 -137.844437 113.542747 -75.110085 -20.876936 137.872513
96 -1.259640 -2.480268 -137.844437 101.226044 -76.750954 -6.033007 137.872513
[Rope3_Seg01]
95 -0.000002 0.000125 -0.000153 -137.234756 -14.715572 -44.306328 0.000197
96 -0.000002 0.000127 -0.000153 -139.666336 -18.665272 -45.996223 0.000198
[Rope3_Seg02]
95 139.999924 -0.000119 0.000060 2.939225 -15.094599 -24.897768 139.999924
96 139.999924 -0.000119 0.000060 -3.885479 -12.314432 -27.430843 139.999924
[Rope3_Seg03]
95 139.999924 -0.000119 0.000119 -158.805527 -18.210295 -39.732048 139.999924
96 139.999924 -0.000119 0.000119 -132.658112 -9.730040 -42.365421 139.999924
[Rope3_Seg04]
95 139.999924 0.000119 0.000000 -8.345225 20.755795 16.266218 139.999924
96 139.999924 0.000119 0.000000 -14.662024 21.613947 10.141979 139.999924
[Rope3_Seg05]
95 139.999924 -0.000238 0.000060 -4.350896 15.053475 8.977613 139.999924
96 139.999924 -0.000238 0.000060 -6.274975 18.794535 9.030709 139.999924
[Rope3_Seg06]
95 139.999893 -0.000119 -0.000060 -0.443590 5.968744 4.957225 139.999893
96 139.999893 -0.000119 -0.000060 -0.975185 9.628984 6.514409 139.999893
[Rope3_Seg07]
95 139.999771 0.000060 -0.000119 0.202589 3.192761 2.946469 139.999771
96 139.999771 0.000060 -0.000119 0.131738 4.833195 3.784760 139.999771
[Rope3_Seg08]
95 139.999985 -0.000060 0.000000 0.380125 1.841023 1.694506 139.999985
96 139.999985 -0.000060 0.000000 0.379276 2.735177 2.138068 139.999985
[Rope3_Seg09]
95 90.185997 -0.000179 -0.000060 89.793228 -1.359877 -0.847183 90.185997
96 90.185997 -0.000179 -0.000060 89.793228 -1.359877 -0.847183 90.185997
[R_rear_hand01]
95 103.366196 -6.073594 -10.757982 -177.714203 24.565960 -73.910950 104.101845
96 103.366196 -6.073594 -10.757982 -177.714203 24.565960 -73.910950 104.101845
[R_rear_hand02]
95 100.509819 12.039542 -7.992327 -12.874829 36.868488 72.167213 101.543350
96 100.509819 12.039542 -7.992327 -12.874829 36.868488 72.167213 101.543350
[R_rear_hand03]
95 101.539970 5.215704 5.435467 71.484581 -71.816628 21.513813 101.819031
96 101.539970 5.215704 5.435467 71.484581 -71.816628 21.513813 101.819031
[Rope4_Seg01]
95 0.000000 0.000134 0.000000 65.540848 -42.622379 -121.218864 0.000134
96 0.000000 0.000135 0.000000 68.416405 -42.174351 -125.732254 0.000135
[Rope4_Seg02]
95 139.999985 0.000060 0.000119 12.312048 -23.463783 16.195471 139.999985
96 139.999985 0.000060 0.000119 14.696118 -24.327677 14.928579 139.999985
[Rope4_Seg03]
95 139.999924 0.000000 -0.000238 15.827555 -12.149479 21.167408 139.999924
96 139.999924 0.000000 -0.000238 18.751961 -12.431131 21.169792 139.999924
[Rope4_Seg04]
95 139.999985 0.000000 0.000119 14.505448 -13.933645 16.980549 139.999985
96 139.999985 0.000000 0.000119 16.588299 -13.326124 17.146603 139.999985
[Rope4_Seg05]
95 139.999802 -0.000060 -0.000119 10.802828 -9.066071 10.883756 139.999802
96 139.999802 -0.000060 -0.000119 11.686762 -8.324886 11.007622 139.999802
[Rope4_Seg06]
95 139.999924 0.000000 0.000060 4.681439 -2.024342 5.074237 139.999924
96 139.999924 0.000000 0.000060 4.832679 -1.629101 5.058480 139.999924
[Rope4_Seg07]
95 139.999802 0.000000 0.000000 2.841780 -0.898698 3.175797 139.999802
96 139.999802 0.000000 0.000000 2.888322 -0.651818 3.146981 139.999802
[Rope4_Seg08]
95 139.999924 0.000000 0.000119 0.113146 -0.435502 1.900482 139.999924
96 139.999924 0.000000 0.000119 0.125559 -0.287293 1.875853 139.999924
[Rope4_Seg09]
95 90.185791 0.000060 0.000060 -135.617828 2.228885 0.850567 90.185791
96 90.185791 0.000060 0.000060 -135.617828 2.228885 0.850567 90.185791
[L_rear_hand01]
95 101.696655 -8.392275 -7.654577 -12.874829 -36.868488 107.832764 102.329041
96 101.696655 -8.392275 -7.654577 -12.874829 -36.868488 107.832764 102.329041
[L_rear_hand02]
95 102.726799 -1.568258 5.773216 71.484581 71.816628 158.486160 102.900848
96 102.726799 -1.568258 5.773216 71.484581 71.816628 158.486160 102.900848
[L_rear_hand03]
95 104.552910 9.721220 -10.420293 -177.714203 -24.565960 -106.089035 105.519653
96 104.552910 9.721220 -10.420293 -177.714203 -24.565960 -106.089035 105.519653
